<?xml version="1.0" encoding="iso-8859-1"?>
<!-- Generator: Adobe Illustrator 18.0.0, SVG Export Plug-In . SVG Version: 6.00 Build 0)  -->
<!DOCTYPE svg PUBLIC "-//W3C//DTD SVG 1.1//EN" "http://www.w3.org/Graphics/SVG/1.1/DTD/svg11.dtd">
<svg version="1.1" id="Capa_1" xmlns="http://www.w3.org/2000/svg" xmlns:xlink="http://www.w3.org/1999/xlink" x="0px" y="0px"
	 viewBox="0 0 411.623 411.623" style="enable-background:new 0 0 411.623 411.623;" xml:space="preserve">
<path d="M411.59,311.985l-5.678-53.939c-0.167-1.591-0.964-3.05-2.211-4.051L246.253,127.632V42.529
	c0-22.3-18.142-40.442-40.44-40.442c-22.3,0-40.442,18.143-40.442,40.442v85.102L7.922,253.995c-1.247,1.001-2.044,2.46-2.211,4.051
	l-5.678,53.939c-0.219,2.077,0.658,4.119,2.316,5.39c1.063,0.815,2.351,1.238,3.651,1.238c0.727,0,1.457-0.132,2.155-0.4
	l30.797-11.862c0.862,7.109,6.922,12.639,14.26,12.639c7.927,0,14.376-6.449,14.376-14.376v-9.293l28.568-11.004
	c0.874,7.096,6.927,12.61,14.255,12.61c7.927,0,14.376-6.449,14.376-14.376v-9.263l40.582-15.631V326.1l-44.727,36.749
	c-2.154,1.817-3.366,4.476-3.333,7.304v29.75c-0.123,5.103,3.883,9.406,8.987,9.623c0.136,0.006,0.272,0.01,0.409,0.01
	c1.146,0,2.271-0.208,3.318-0.606l50.689-18.977c7.128,5.66,15.905,8.738,25.099,8.738c9.197,0,17.976-3.08,25.104-8.744
	l50.651,18.879c1.076,0.409,2.203,0.617,3.351,0.617c3.876,0,7.404-2.434,8.783-6.066c0.395-1.047,0.603-2.137,0.613-3.315
	l-0.092-29.912c0.04-2.796-1.157-5.442-3.295-7.275c-0.032-0.027-0.065-0.055-0.097-0.082l-44.579-36.613v-68.522l40.582,15.631
	v9.263c0,7.927,6.449,14.376,14.376,14.376c7.328,0,13.381-5.516,14.255-12.61l28.568,11.004v9.293
	c0,7.927,6.449,14.376,14.376,14.376c7.338,0,13.398-5.53,14.26-12.64l30.797,11.863c0.698,0.268,1.429,0.4,2.155,0.4
	c1.301,0,2.588-0.423,3.651-1.238C410.931,316.104,411.808,314.062,411.59,311.985z M205.812,14.087
	c15.683,0,28.44,12.76,28.44,28.442v2.281c-7.312-7.242-17.361-11.724-28.44-11.724c-11.08,0-21.131,4.482-28.442,11.725v-2.282
	C177.37,26.847,190.129,14.087,205.812,14.087z M55.589,304.613c0,1.31-1.065,2.376-2.376,2.376c-1.31,0-2.375-1.065-2.375-2.376
	v-30.643c0-1.31,1.065-2.375,2.375-2.375c1.31,0,2.376,1.065,2.376,2.375V304.613z M112.788,282.551c0,1.31-1.065,2.376-2.376,2.376
	c-1.31,0-2.375-1.065-2.375-2.376v-30.643c0-1.31,1.065-2.375,2.375-2.375c1.311,0,2.376,1.065,2.376,2.375V282.551z
	 M110.412,237.533c-7.927,0-14.375,6.449-14.375,14.375v19.595l-28.448,10.958v-8.49c0-7.926-6.449-14.375-14.376-14.375
	c-7.927,0-14.375,6.449-14.375,14.375v19.564l-25.845,9.955l4.39-41.702l142.662-114.495L145.658,252.39l-20.87,8.038v-8.521
	C124.788,243.982,118.339,237.533,110.412,237.533z M282.227,371.254l0.077,25.04l-50.542-18.838
	c-2.162-0.805-4.592-0.3-6.254,1.297c-5.326,5.119-12.321,7.939-19.696,7.939c-7.374,0-14.369-2.818-19.696-7.938
	c-1.666-1.6-4.101-2.103-6.261-1.293l-50.546,18.924V371.26l45.869-37.688c1.388-1.14,2.191-2.84,2.191-4.636V73.529
	c0-15.683,12.759-28.442,28.442-28.442c15.682,0,28.44,12.76,28.44,28.442v255.485c0,1.796,0.805,3.497,2.191,4.637L282.227,371.254
	z M303.586,282.551c0,1.31-1.065,2.376-2.375,2.376c-1.31,0-2.376-1.065-2.376-2.376v-30.643c0-1.31,1.066-2.375,2.376-2.375
	c1.31,0,2.375,1.065,2.375,2.375V282.551z M360.785,304.613c0,1.31-1.065,2.376-2.375,2.376c-1.31,0-2.376-1.065-2.376-2.376
	v-30.643c0-1.31,1.065-2.375,2.376-2.375c1.31,0,2.375,1.065,2.375,2.375V304.613z M372.785,293.535v-19.564
	c0-7.926-6.448-14.375-14.375-14.375c-7.927,0-14.376,6.449-14.376,14.375v8.49l-28.448-10.958v-19.595
	c0-7.926-6.448-14.375-14.375-14.375c-7.927,0-14.376,6.449-14.376,14.375v8.521l-20.87-8.038l-14.387-105.098L394.24,261.788
	l4.39,41.702L372.785,293.535z"/>
<g>
</g>
<g>
</g>
<g>
</g>
<g>
</g>
<g>
</g>
<g>
</g>
<g>
</g>
<g>
</g>
<g>
</g>
<g>
</g>
<g>
</g>
<g>
</g>
<g>
</g>
<g>
</g>
<g>
</g>
</svg>
