<?xml version="1.0" encoding="iso-8859-1"?>
<!-- Generator: Adobe Illustrator 17.1.0, SVG Export Plug-In . SVG Version: 6.00 Build 0)  -->
<!DOCTYPE svg PUBLIC "-//W3C//DTD SVG 1.1//EN" "http://www.w3.org/Graphics/SVG/1.1/DTD/svg11.dtd">
<svg version="1.1" id="Capa_1" xmlns="http://www.w3.org/2000/svg" xmlns:xlink="http://www.w3.org/1999/xlink" x="0px" y="0px"
	 viewBox="0 0 437.101 437.101" style="enable-background:new 0 0 437.101 437.101;" xml:space="preserve">
<path id="XMLID_368_" d="M89.158,108.015v28.286c0,19.787,16.098,35.885,35.885,35.885c19.786,0,35.883-16.098,35.883-35.885
	c0-4.971,4.029-9,9-9s9,4.029,9,9c0,29.712-24.172,53.885-53.883,53.885c-29.712,0-53.885-24.172-53.885-53.885v-28.286
	c0-4.971,4.029-9,9-9S89.158,103.044,89.158,108.015z M41.037,154.943c4.971,0,9-4.029,9-9V93.005
	C50.037,51.647,83.683,18,125.044,18c39.831,0,72.509,31.21,74.866,70.46c0.09,1.504,0.136,6.766,0.136,6.766
	C187.595,87.663,170.925,85,155.489,82.533c-30.687-4.903-44.04-8.811-43.126-25.643c0.271-4.963-3.535-9.206-8.498-9.475
	c-4.969-0.262-9.206,3.536-9.475,8.499c-0.853,15.693,5.788,27.275,19.739,34.425c10.812,5.542,24.897,7.792,38.52,9.969
	c25.616,4.093,42.9,7.858,47.397,21.719v23.917c0,12.121-7.822,29.385-18.6,41.05c-3.373,3.651-3.148,9.345,0.503,12.718
	c1.73,1.6,3.921,2.39,6.105,2.39c2.423,0,4.839-0.973,6.612-2.893c13.983-15.135,23.379-36.541,23.379-53.265v-25.057
	c0.002-0.102,0.002-0.204,0-0.307V93.005C218.046,41.722,176.326,0,125.041,0C73.758,0,32.037,41.722,32.037,93.005v52.938
	C32.037,150.914,36.066,154.943,41.037,154.943z M226.328,259.657c-8.023-13.7-22.542-23.816-37.89-26.401l-29.697-5.002
	c-4.678-0.787-9.172,2.195-10.257,6.818l-32.205,137.209c-1.136,4.839,1.866,9.683,6.705,10.818
	c4.841,1.138,9.683-1.866,10.818-6.705l30.275-128.989l21.37,3.6c10.232,1.724,19.945,8.524,25.348,17.748
	c4.1,7,5.051,14.501,2.678,21.12l-46.342,129.226H75.62L29.279,289.875c-2.373-6.62-1.422-14.122,2.679-21.122
	c5.402-9.224,15.114-16.023,25.348-17.747l21.479-3.618l17.589,51.702c1.602,4.707,6.716,7.224,11.419,5.622
	c4.706-1.601,7.223-6.713,5.622-11.419L93.36,234.343c-1.421-4.179-5.663-6.708-10.016-5.977l-29.029,4.89
	c-15.347,2.585-29.865,12.701-37.89,26.399c-2.548,4.35-4.348,8.867-5.387,13.43c-0.893,3.921-1.052,24.464-1.052,24.464v130.55
	c0,4.971,4.029,9,9,9s9-4.029,9-9v-88.507l32.828,91.545c1.282,3.576,4.673,5.962,8.472,5.962h104.18
	c3.799,0,7.189-2.386,8.472-5.962l32.828-91.543v88.505c0,4.971,4.029,9,9,9s9-4.029,9-9V299.55c0,0,0.033-17.559-0.033-19.008
	C232.411,273.482,230.259,266.37,226.328,259.657z M50.327,282.44v7.025c0,4.971,4.029,9,9,9s9-4.029,9-9v-7.025
	c0-4.971-4.029-9-9-9S50.327,277.47,50.327,282.44z M418.115,102.759h-73.092l-56.618-74.268c-1.702-2.233-4.35-3.543-7.157-3.543
	s-5.455,1.311-7.157,3.543l-32.776,42.992c-3.014,3.953-2.252,9.6,1.701,12.614c3.951,3.015,9.601,2.253,12.613-1.701l25.619-33.604
	l41.142,53.966h-59.563c-4.971,0-9,4.029-9,9s4.029,9,9,9h77.657c0.061,0.001,0.121,0.001,0.182,0h68.45v215.695H282.329
	c-4.971,0-9,4.029-9,9s4.029,9,9,9h135.786c4.971,0,9-4.029,9-9V111.759C427.115,106.789,423.085,102.759,418.115,102.759z
	 M371.679,308.535c1.758,1.757,4.061,2.636,6.364,2.636s4.606-0.879,6.364-2.636c3.515-3.515,3.515-9.213,0-12.728L360.85,272.25
	v-87.285l23.557-23.556c3.516-3.515,3.516-9.213,0.001-12.728s-9.212-3.515-12.729,0l-23.557,23.556h-80.787c-4.971,0-9,4.029-9,9
	s4.029,9,9,9h75.515v76.741h-75.515c-4.971,0-9,4.029-9,9s4.029,9,9,9h80.787L371.679,308.535z"/>
<g>
</g>
<g>
</g>
<g>
</g>
<g>
</g>
<g>
</g>
<g>
</g>
<g>
</g>
<g>
</g>
<g>
</g>
<g>
</g>
<g>
</g>
<g>
</g>
<g>
</g>
<g>
</g>
<g>
</g>
</svg>
